<svg id="svg" version="1.1" xmlns="http://www.w3.org/2000/svg" style="display: block;" viewBox="0 0 1000 1000"><path d="M0 0 C330 0 660 0 1000 0 C1000 330 1000 660 1000 1000 C670 1000 340 1000 0 1000 C0 670 0 340 0 0 Z " transform="translate(0,0)" style="fill: #FEFEFE;"/><path d="M0 0 C0 0.66 0 1.32 0 2 C1.98 2.33 3.96 2.66 6 3 C6 3.66 6 4.32 6 5 C6.71285156 5.12117188 7.42570313 5.24234375 8.16015625 5.3671875 C13.55234841 6.31063969 18.77235672 7.37362209 24 9 C24 9.66 24 10.32 24 11 C25.65 11 27.3 11 29 11 C29.33 11.99 29.66 12.98 30 14 C30.7425 14.061875 31.485 14.12375 32.25 14.1875 C35.86065729 15.25428511 36.84459336 16.9824307 39 20 C39.5775 20.556875 40.155 21.11375 40.75 21.6875 C42 23 42 23 42 25 C43.2065625 25.433125 43.2065625 25.433125 44.4375 25.875 C47 27 47 27 48 29 C48.825 29.28875 49.65 29.5775 50.5 29.875 C53 31 53 31 53.8125 33.125 C53.874375 33.74375 53.93625 34.3625 54 35 C56.97 35.495 56.97 35.495 60 36 C60 36.66 60 37.32 60 38 C61.65 38.33 63.3 38.66 65 39 C65 39.66 65 40.32 65 41 C65.69867187 41.06058594 66.39734375 41.12117188 67.1171875 41.18359375 C68.02726563 41.26738281 68.93734375 41.35117187 69.875 41.4375 C70.77992188 41.51871094 71.68484375 41.59992188 72.6171875 41.68359375 C75 42 75 42 77 43 C82.10131448 43.28368566 87.20355426 43.313686 92.31201172 43.35009766 C94.01722859 43.36666578 95.72237578 43.39396747 97.42724609 43.43212891 C99.88675926 43.48689057 102.3446469 43.50876729 104.8046875 43.5234375 C105.5652243 43.54610687 106.32576111 43.56877625 107.10934448 43.59213257 C109.54542174 43.63676201 109.54542174 43.63676201 113 43 C115.38154404 40.64278343 115.38154404 40.64278343 117 38 C117.886875 37.649375 118.77375 37.29875 119.6875 36.9375 C120.450625 36.628125 121.21375 36.31875 122 36 C122.88693303 33.95894361 122.88693303 33.95894361 123 32 C123.99 32 124.98 32 126 32 C126 31.34 126 30.68 126 30 C127.375 28.375 127.375 28.375 129 27 C129.66 27 130.32 27 131 27 C131.66 25.68 132.32 24.36 133 23 C133.66 23 134.32 23 135 23 C135 22.34 135 21.68 135 21 C138.13083558 17.94104108 140.50605324 17.61583353 144.796875 17.6015625 C146.48296875 17.59576172 146.48296875 17.59576172 148.203125 17.58984375 C149.37359375 17.60144531 150.5440625 17.61304688 151.75 17.625 C152.905 17.61339844 154.06 17.60179687 155.25 17.58984375 C161.88177576 17.61255531 166.97139839 18.19358201 173 21 C173 21.66 173 22.32 173 23 C173.63808594 23.18175781 174.27617188 23.36351562 174.93359375 23.55078125 C175.75988281 23.80214844 176.58617187 24.05351562 177.4375 24.3125 C178.26121094 24.55613281 179.08492187 24.79976563 179.93359375 25.05078125 C180.61550781 25.36402344 181.29742188 25.67726563 182 26 C182.33 26.99 182.66 27.98 183 29 C183.79664063 29.13277344 184.59328125 29.26554687 185.4140625 29.40234375 C187.5390625 29.75651042 189.6640625 30.11067708 191.7890625 30.46484375 C192.84867188 30.64144531 193.90828125 30.81804687 195 31 C197 31.33333333 199 31.66666667 201 32 C201 32.99 201 33.98 201 35 C201.99 35.33 202.98 35.66 204 36 C204 36.66 204 37.32 204 38 C204.99 38.33 205.98 38.66 207 39 C207 39.66 207 40.32 207 41 C207.99 41.33 208.98 41.66 210 42 C210 42.66 210 43.32 210 44 C210.99 44.33 211.98 44.66 213 45 C213 45.66 213 46.32 213 47 C213.86625 47.433125 213.86625 47.433125 214.75 47.875 C215.86375 48.431875 215.86375 48.431875 217 49 C217.721875 49.268125 218.44375 49.53625 219.1875 49.8125 C221 51 221 51 221.75 53.625 C221.8325 54.40875 221.915 55.1925 222 56 C222.66 56 223.32 56 224 56 C224.33 57.98 224.66 59.96 225 62 C225.66 62 226.32 62 227 62 C227.12117188 62.58007812 227.24234375 63.16015625 227.3671875 63.7578125 C228.1286468 67.3073843 228.89325005 70.70347237 230.125 74.125 C231.15782074 77.51855385 231.14108819 80.47279519 231 84 C231.66 84 232.32 84 233 84 C234.00010314 88.98412872 234.14575699 93.73582878 234.1328125 98.79296875 C234.13424759 100.03473625 234.13424759 100.03473625 234.13571167 101.30158997 C234.13638921 103.04212521 234.13456475 104.78266304 234.13037109 106.52319336 C234.12499628 109.18934768 234.13034099 111.85533511 234.13671875 114.52148438 C234.13605829 116.2161462 234.1347778 117.91080793 234.1328125 119.60546875 C234.13483673 120.40236618 234.13686096 121.19926361 234.13894653 122.02030945 C234.12511473 125.2727066 234.03584539 127.89246382 233 131 C232.34 131 231.68 131 231 131 C230.95101563 132.30710937 230.90203125 133.61421875 230.8515625 134.9609375 C230.37265355 146.71688036 229.46806917 158.32671217 228 170 C227.01 170.33 226.02 170.66 225 171 C224.87882812 171.94101562 224.75765625 172.88203125 224.6328125 173.8515625 C224.46523438 175.09679687 224.29765625 176.34203125 224.125 177.625 C223.88136719 179.46964844 223.88136719 179.46964844 223.6328125 181.3515625 C223.04143183 184.76112761 222.29934864 187.79494002 221 191 C220.34 191.33 219.68 191.66 219 192 C218.67 192.99 218.34 193.98 218 195 C217.34 195 216.68 195 216 195 C215.67 195.99 215.34 196.98 215 198 C214.34 198 213.68 198 213 198 C212.71125 198.7425 212.4225 199.485 212.125 200.25 C211.17697356 202.56739797 210.15154089 204.77917115 209 207 C208.34 207 207.68 207 207 207 C206.67 209.64 206.34 212.28 206 215 C205.34 215 204.68 215 204 215 C203.67 217.31 203.34 219.62 203 222 C202.34 222 201.68 222 201 222 C197.49255894 229.71637034 198.05292035 235.35740465 200.30859375 243.328125 C201 246 201 246 201 249 C201.66 249 202.32 249 203 249 C203.07516846 249.9744104 203.07516846 249.9744104 203.15185547 250.96850586 C203.3863098 253.95872901 203.63059304 256.94807452 203.875 259.9375 C203.95363281 260.95908203 204.03226563 261.98066406 204.11328125 263.03320312 C204.4990789 267.67761325 204.95138054 272.15907552 206.05859375 276.69140625 C207.13842574 281.16867226 207.26812995 285.41002871 207.1875 290 C207.17456909 291.18227173 207.17456909 291.18227173 207.16137695 292.38842773 C207.02677273 301.11240752 206.09092507 308.77697293 203 317 C202.34 317 201.68 317 201 317 C200.83564453 317.88751953 200.83564453 317.88751953 200.66796875 318.79296875 C199.73065384 323.46430243 198.67281573 326.99077641 196 331 C195.30177383 332.65369357 194.62501395 334.31727014 194 336 C193.34 336 192.68 336 192 336 C191.67 336.99 191.34 337.98 191 339 C190.34 339 189.68 339 189 339 C188.938125 339.7425 188.87625 340.485 188.8125 341.25 C187.74571489 344.86065729 186.0175693 345.84459336 183 348 C182.195625 348.86625 182.195625 348.86625 181.375 349.75 C180 351 180 351 177 351 C176.67 351.99 176.34 352.98 176 354 C175.01 354 174.02 354 173 354 C173 354.66 173 355.32 173 356 C172.360625 356.103125 171.72125 356.20625 171.0625 356.3125 C170.0415625 356.6528125 170.0415625 356.6528125 169 357 C168.67 357.99 168.34 358.98 168 360 C166 361 164 362 162 363 C160.29220027 364.62449243 158.62449243 366.29220027 157 368 C152.35135135 372 152.35135135 372 150 372 C149.67 372.99 149.34 373.98 149 375 C148.01 375 147.02 375 146 375 C145.73832031 375.59554688 145.47664063 376.19109375 145.20703125 376.8046875 C142.32894673 382.03926194 137.42853966 384.92438189 132 387 C131.67 387.99 131.34 388.98 131 390 C130.01 390 129.02 390 128 390 C128 390.66 128 391.32 128 392 C126.35 392.33 124.7 392.66 123 393 C122.67 393.99 122.34 394.98 122 396 C118.39821412 398.40119059 115.49133631 398.43771322 111.3125 398.625 C110.61060547 398.66367187 109.90871094 398.70234375 109.18554688 398.7421875 C107.45745345 398.8362334 105.72876325 398.9191968 104 399 C104 399.66 104 400.32 104 401 C101.10555905 401.6732656 98.20969987 402.33880404 95.3125 403 C94.08756836 403.28617188 94.08756836 403.28617188 92.83789062 403.578125 C88.82760674 404.48733916 85.14282748 405.27000098 81 405 C81 405.66 81 406.32 81 407 C74.58938806 408.2161434 68.24157733 408.25816902 61.7421875 408.29516602 C60.33420773 408.30669353 58.92627192 408.32715806 57.51855469 408.35668945 C49.4520736 408.52544823 42.93939736 408.54557424 36 404 C36 403.34 36 402.68 36 402 C34.68 401.67 33.36 401.34 32 401 C32 400.34 32 399.68 32 399 C31.01 398.67 30.02 398.34 29 398 C29 397.34 29 396.68 29 396 C27.35 395.67 25.7 395.34 24 395 C24 394.34 24 393.68 24 393 C23.32839844 393.04640625 22.65679687 393.0928125 21.96484375 393.140625 C14.02059468 393.42764303 6.57029732 392.46696955 -1.25 391.125 C-2.80473022 390.86444824 -2.80473022 390.86444824 -4.39086914 390.59863281 C-5.36016357 390.42428711 -6.32945801 390.24994141 -7.328125 390.0703125 C-8.2037207 389.91320801 -9.07931641 389.75610352 -9.98144531 389.59423828 C-10.64756836 389.39813965 -11.31369141 389.20204102 -12 389 C-12.33 388.34 -12.66 387.68 -13 387 C-15.52733235 386.34444881 -15.52733235 386.34444881 -18 386 C-18 385.34 -18 384.68 -18 384 C-19.32 383.67 -20.64 383.34 -22 383 C-22 382.34 -22 381.68 -22 381 C-23.3303125 380.6596875 -23.3303125 380.6596875 -24.6875 380.3125 C-30.82755156 377.87964938 -33.45419545 373.6749714 -36.0078125 367.8671875 C-37.08793872 365.83450903 -38.35742014 364.5951563 -40 363 C-43 357.66666667 -43 357.66666667 -43 354 C-43.99 353.67 -44.98 353.34 -46 353 C-46.96020296 350.19051726 -47.5283298 347.36914329 -48.15625 344.46875 C-48.4346875 343.6540625 -48.713125 342.839375 -49 342 C-49.99 341.67 -50.98 341.34 -52 341 C-55 335.77777778 -55 335.77777778 -55 333 C-55.99 332.67 -56.98 332.34 -58 332 C-58.433125 331.236875 -58.86625 330.47375 -59.3125 329.6875 C-60.84709435 326.75785334 -60.84709435 326.75785334 -64.08203125 325.31640625 C-67 323 -67 323 -67.5859375 319.328125 C-67.54630793 317.9675098 -67.47508093 316.60750803 -67.375 315.25 C-67.33439453 314.20392578 -67.33439453 314.20392578 -67.29296875 313.13671875 C-67.22254783 311.42314295 -67.11492913 309.71116698 -67 308 C-67.66 308 -68.32 308 -69 308 C-69.67467562 306.25307205 -70.33944156 304.50231475 -71 302.75 C-71.37125 301.77546875 -71.7425 300.8009375 -72.125 299.796875 C-73 297 -73 297 -73 293 C-73.66 293 -74.32 293 -75 293 C-75.391875 291.80375 -75.78375 290.6075 -76.1875 289.375 C-77.97757076 283.99626357 -79.8950848 278.66504499 -81.81640625 273.33203125 C-82.60095693 271.12337869 -83.31851785 268.88970094 -83.96484375 266.63671875 C-84.30644531 265.76660156 -84.64804687 264.89648438 -85 264 C-85.99 263.67 -86.98 263.34 -88 263 C-89.03789581 261.35666496 -90.03567924 259.68756133 -91 258 C-91.5775 257.484375 -92.155 256.96875 -92.75 256.4375 C-93.36875 255.7259375 -93.36875 255.7259375 -94 255 C-93.6875 252.8125 -93.6875 252.8125 -93 251 C-92.34 251 -91.68 251 -91 251 C-91 250.01 -91 249.02 -91 248 C-89.68 248.33 -88.36 248.66 -87 249 C-87 249.99 -87 250.98 -87 252 C-86.34 252 -85.68 252 -85 252 C-84.32591692 253.26691507 -83.66099503 254.53870749 -83 255.8125 C-82.62875 256.52019531 -82.2575 257.22789062 -81.875 257.95703125 C-81 260 -81 260 -81 263 C-80.34 263 -79.68 263 -79 263 C-78.67 264.32 -78.34 265.64 -78 267 C-77.34 267 -76.68 267 -76 267 C-74.94410931 268.63183107 -73.9563874 270.30792999 -73 272 C-70.6258073 276.16292572 -70.6258073 276.16292572 -67 279 C-65.9296875 280.99609375 -65.9296875 280.99609375 -64.875 283.4375 C-64.52179688 284.24058594 -64.16859375 285.04367187 -63.8046875 285.87109375 C-63 288 -63 288 -63 290 C-62.34 290 -61.68 290 -61 290 C-60.3291288 291.6232687 -59.66342971 293.24867578 -59 294.875 C-58.443125 296.23238281 -58.443125 296.23238281 -57.875 297.6171875 C-57 300 -57 300 -57 302 C-56.34 302 -55.68 302 -55 302 C-54.32243118 303.55780332 -53.65840543 305.12150096 -53 306.6875 C-52.62875 307.55761719 -52.2575 308.42773438 -51.875 309.32421875 C-50.98129512 312.0572002 -50.83550324 314.14700934 -51 317 C-50.34 317 -49.68 317 -49 317 C-48.65388672 317.88751953 -48.65388672 317.88751953 -48.30078125 318.79296875 C-46.20307164 323.87556159 -44.19947254 327.31265826 -40 331 C-30 341 -30 341 -28.3125 342.75 C-27.00032127 344.12192353 -27.00032127 344.12192353 -25 345 C-25 345.66 -25 346.32 -25 347 C-23.68 347.33 -22.36 347.66 -21 348 C-21 348.66 -21 349.32 -21 350 C-19.68 350.33 -18.36 350.66 -17 351 C-17 351.66 -17 352.32 -17 353 C-13.37802806 354.49140021 -9.72433382 355.7874262 -6 357 C-6 357.66 -6 358.32 -6 359 C-5.113125 359.28875 -4.22625 359.5775 -3.3125 359.875 C-0.49617576 360.83148748 2.25083156 361.86798946 5 363 C5 363.66 5 364.32 5 365 C5.9075 365.28875 6.815 365.5775 7.75 365.875 C10.32202908 366.76531776 12.61346766 367.71494413 15 369 C15 369.66 15 370.32 15 371 C15.825 371.103125 16.65 371.20625 17.5 371.3125 C21.49928924 372.09807467 25.34068836 373.1747109 29 375 C29.33 375.66 29.66 376.32 30 377 C32.11015954 378.12706706 32.11015954 378.12706706 34.5625 379.125 C35.38878906 379.47820312 36.21507812 379.83140625 37.06640625 380.1953125 C37.70449219 380.46085937 38.34257813 380.72640625 39 381 C39 381.66 39 382.32 39 383 C42.92438786 384.66489182 46.89100419 385.87204037 51 387 C51 387.66 51 388.32 51 389 C57.6 389 64.2 389 71 389 C71 388.34 71 387.68 71 387 C71.99 386.67 72.98 386.34 74 386 C74.33 385.34 74.66 384.68 75 384 C73.31970703 384.01740234 73.31970703 384.01740234 71.60546875 384.03515625 C70.13281417 384.04453622 68.66015778 384.0536362 67.1875 384.0625 C66.44951172 384.07087891 65.71152344 384.07925781 64.95117188 384.08789062 C61.70077932 384.10259828 59.10595105 384.03531702 56 383 C56 382.34 56 381.68 56 381 C55.34 381 54.68 381 54 381 C49.10204082 376.10204082 49.10204082 376.10204082 48.6875 371.625 C48.790625 370.75875 48.89375 369.8925 49 369 C60.45984363 363.72847193 73.63174084 364.84409757 86 365 C86 364.34 86 363.68 86 363 C87.24136719 362.91363281 88.48273438 362.82726562 89.76171875 362.73828125 C91.40374756 362.59753592 93.04566976 362.45554304 94.6875 362.3125 C95.50412109 362.25900391 96.32074219 362.20550781 97.16210938 362.15039062 C101.54706083 361.74207531 103.4941569 361.43262013 106.94140625 358.484375 C107.62074219 357.66453125 108.30007813 356.8446875 109 356 C109.7425 355.649375 110.485 355.29875 111.25 354.9375 C112.11625 354.4734375 112.11625 354.4734375 113 354 C113.59070014 352.05396726 113.59070014 352.05396726 114 350 C115.375 348.25 115.375 348.25 117 347 C117.99 347 118.98 347 120 347 C120.268125 346.195625 120.53625 345.39125 120.8125 344.5625 C121.204375 343.716875 121.59625 342.87125 122 342 C122.99 341.67 123.98 341.34 125 341 C126.10636395 338.60931266 126.10636395 338.60931266 127 336 C127.66 335.01 128.32 334.02 129 333 C129.66 333 130.32 333 131 333 C131.33 331.68 131.66 330.36 132 329 C132.66 329 133.32 329 134 329 C134.33 328.01 134.66 327.02 135 326 C135.66 326 136.32 326 137 326 C137.2475 325.05125 137.495 324.1025 137.75 323.125 C139.17423987 319.56440032 139.71715887 319.48257341 143 318 C143.62092718 316.18703385 143.62092718 316.18703385 144 314 C144.96887581 311.98473831 145.9641321 309.98166034 147 308 C147.66 308 148.32 308 149 308 C149.28875 307.113125 149.5775 306.22625 149.875 305.3125 C150.24625 304.219375 150.6175 303.12625 151 302 C151.433125 300.700625 151.433125 300.700625 151.875 299.375 C153.17143247 296.638087 154.87056604 295.12943396 157 293 C158.25436187 290.36777038 158.25436187 290.36777038 159 288 C159.66 288 160.32 288 161 288 C161.12375 287.2575 161.2475 286.515 161.375 285.75 C162 283 162 283 163 281.125 C164.39234567 278.16626544 164.62765961 275.22695003 165 272 C165.66 272 166.32 272 167 272 C167.02187378 271.07719238 167.02187378 271.07719238 167.04418945 270.13574219 C167.11880577 267.33987146 167.2154198 264.54517713 167.3125 261.75 C167.33505859 260.78191406 167.35761719 259.81382812 167.38085938 258.81640625 C167.41630859 257.88183594 167.45175781 256.94726562 167.48828125 255.984375 C167.51446533 255.12553711 167.54064941 254.26669922 167.56762695 253.38183594 C168.08468876 250.53347062 169.02511719 249.09322444 171 247 C171.66 247 172.32 247 173 247 C173.33 245.68 173.66 244.36 174 243 C177.25 242.25 177.25 242.25 181 242 C183.4375 243.9375 183.4375 243.9375 185 246 C187.12467297 239.8283309 188.64366467 234.54392413 188 228 C187.505 226.989375 187.01 225.97875 186.5 224.9375 C182.77944282 217.32088765 184.53358816 206.14673246 186 198 C186.33 197.67 186.66 197.34 187 197 C187.09851171 195.16884117 187.12972629 193.33380067 187.125 191.5 C187.12886719 189.99953125 187.12886719 189.99953125 187.1328125 188.46875 C187.27870382 186.05600378 187.27870382 186.05600378 186 185 C185.85884839 182.32941149 185.95752893 179.67567762 186 177 C186.99 176.67 187.98 176.34 189 176 C189 175.34 189 174.68 189 174 C189.99 173.67 190.98 173.34 192 173 C192.87527214 171.26363174 192.87527214 171.26363174 193.4375 169.1875 C194.67103405 165.55182071 196.06735461 163.55423953 199 161 C199.66 160.01 200.32 159.02 201 158 C201.66 158 202.32 158 203 158 C203 157.34 203 156.68 203 156 C204.97290587 153.65130253 206.00306862 152.99897713 209 152 C210.33333333 149 210.33333333 149 209 146 C208.93259135 144.43881572 208.91485544 142.8749748 208.9375 141.3125 C208.94652344 140.50425781 208.95554687 139.69601562 208.96484375 138.86328125 C208.98224609 137.94095703 208.98224609 137.94095703 209 137 C210.32 137.33 211.64 137.66 213 138 C213 138.99 213 139.98 213 141 C213.66 141 214.32 141 215 141 C215 135.72 215 130.44 215 125 C214.34 125 213.68 125 213 125 C210.45175967 117.00269231 209.38612648 109.37495014 209 101 C208.34 101 207.68 101 207 101 C204.42113193 94.94526627 203.38979206 89.55925943 203 83 C202.34 83 201.68 83 201 83 C200.32739649 81.23141309 199.66211605 79.46003984 199 77.6875 C198.62875 76.70136719 198.2575 75.71523438 197.875 74.69921875 C197 72 197 72 197 69 C196.34 69 195.68 69 195 69 C194.32694982 67.39850114 193.66177773 65.79368971 193 64.1875 C192.62875 63.29417969 192.2575 62.40085937 191.875 61.48046875 C191 59 191 59 191 56 C190.34 56 189.68 56 189 56 C188.7834375 55.23171875 188.566875 54.4634375 188.34375 53.671875 C186.60488164 50.21435767 185.03989438 49.68458877 181.5 48.25 C180.03046875 47.63898438 180.03046875 47.63898438 178.53125 47.015625 C177.27828125 46.51289063 177.27828125 46.51289063 176 46 C175.34 45.67 174.68 45.34 174 45 C171.96767366 44.91472372 169.93252994 44.89283865 167.8984375 44.90234375 C166.68671875 44.90556641 165.475 44.90878906 164.2265625 44.91210938 C162.95554687 44.92048828 161.68453125 44.92886719 160.375 44.9375 C158.456875 44.94426758 158.456875 44.94426758 156.5 44.95117188 C153.33328708 44.96298797 150.16666644 44.97946185 147 45 C147 45.66 147 46.32 147 47 C143.0186217 48.3271261 139.14954773 48.06915913 135 48 C135 48.66 135 49.32 135 50 C133.865625 50.309375 132.73125 50.61875 131.5625 50.9375 C128.21224901 51.62924531 128.21224901 51.62924531 127 53 C125.38235232 53.28502833 123.75481141 53.51444645 122.125 53.71875 C121.14015625 53.84636719 120.1553125 53.97398437 119.140625 54.10546875 C117.046875 54.36848958 114.953125 54.63151042 112.859375 54.89453125 C111.87453125 55.02214844 110.8896875 55.14976562 109.875 55.28125 C108.96492187 55.39533203 108.05484375 55.50941406 107.1171875 55.62695312 C105.02123007 55.78754397 105.02123007 55.78754397 104 57 C102.33382885 57.04063832 100.66611905 57.042721 99 57 C99 57.66 99 58.32 99 59 C94.69859676 59.82117698 90.627264 60.13508586 86.25 60.125 C84.55617188 60.12886719 84.55617188 60.12886719 82.828125 60.1328125 C80 60 80 60 78 59 C78 58.34 78 57.68 78 57 C77.29875 56.896875 76.5975 56.79375 75.875 56.6875 C72.60862353 55.90640997 69.9528148 54.57941257 67 53 C67 52.34 67 51.68 67 51 C62.71 51 58.42 51 54 51 C53.67 50.01 53.34 49.02 53 48 C51.35 47.67 49.7 47.34 48 47 C48 46.34 48 45.68 48 45 C47.46375 44.896875 46.9275 44.79375 46.375 44.6875 C43.37497956 43.81907303 40.7620465 42.44379704 38 41 C38 40.34 38 39.68 38 39 C37.236875 38.71125 36.47375 38.4225 35.6875 38.125 C33 37 33 37 30 35 C30 34.34 30 33.68 30 33 C28.68 32.67 27.36 32.34 26 32 C26 31.34 26 30.68 26 30 C25.01 29.67 24.02 29.34 23 29 C23 28.34 23 27.68 23 27 C22.41992188 26.87882812 21.83984375 26.75765625 21.2421875 26.6328125 C16.71971558 25.66264526 12.36249034 24.56602217 8 23 C8 22.34 8 21.68 8 21 C6.9275 20.87625 5.855 20.7525 4.75 20.625 C1.47796453 20.07966075 -0.14829248 19.42585376 -3 18 C-5.32495277 17.61250787 -7.65851268 17.27017161 -10 17 C-10 16.34 -10 15.68 -10 15 C-19.02190023 13.24078889 -25.7826923 12.11319201 -34 17 C-35.61501228 17.77127189 -37.2401751 18.52166455 -38.875 19.25 C-39.59429687 19.58515625 -40.31359375 19.9203125 -41.0546875 20.265625 C-43 21 -43 21 -46 21 C-46 21.66 -46 22.32 -46 23 C-47.65 23.66 -49.3 24.32 -51 25 C-51.103125 26.0725 -51.20625 27.145 -51.3125 28.25 C-51.97202199 31.84739269 -52.45776191 33.45776191 -55 36 C-55.66 36 -56.32 36 -57 36 C-57.2475 36.78375 -57.495 37.5675 -57.75 38.375 C-59.22139994 41.46493987 -60.07318455 41.53659227 -63 43 C-64.16953416 45.42383077 -64.16953416 45.42383077 -65 48 C-65.66 48.99 -66.32 49.98 -67 51 C-67.66 51 -68.32 51 -69 51 C-69.18175781 51.63808594 -69.36351562 52.27617187 -69.55078125 52.93359375 C-69.80214844 53.75988281 -70.05351562 54.58617187 -70.3125 55.4375 C-70.55613281 56.26121094 -70.79976563 57.08492188 -71.05078125 57.93359375 C-71.36402344 58.61550781 -71.67726563 59.29742187 -72 60 C-73.485 60.495 -73.485 60.495 -75 61 C-76.10636395 63.39068734 -76.10636395 63.39068734 -77 66 C-77.66 66.99 -78.32 67.98 -79 69 C-79.66 69 -80.32 69 -81 69 C-81.28875 69.5775 -81.5775 70.155 -81.875 70.75 C-82.24625 71.4925 -82.6175 72.235 -83 73 C-83.433125 73.99 -83.433125 73.99 -83.875 75 C-85.24347833 77.43285036 -87.00149279 79.06394614 -89 81 C-89.66 81.99 -90.32 82.98 -91 84 C-91.66 84 -92.32 84 -93 84 C-93.495 85.485 -93.495 85.485 -94 87 C-94.66 87 -95.32 87 -96 87 C-96.495 88.485 -96.495 88.485 -97 90 C-97.99 90 -98.98 90 -100 90 C-100 90.66 -100 91.32 -100 92 C-103.74096728 95.74096728 -106.75625946 96.69747651 -112 97 C-112.495 96.505 -112.495 96.505 -113 96 C-113.33 96.66 -113.66 97.32 -114 98 C-112.515 98.495 -112.515 98.495 -111 99 C-111 99.99 -111 100.98 -111 102 C-110.34 102 -109.68 102 -109 102 C-109 103.98 -109 105.96 -109 108 C-111.475 108.495 -111.475 108.495 -114 109 C-114.33 107.35 -114.66 105.7 -115 104 C-119.455 104.495 -119.455 104.495 -124 105 C-124 105.66 -124 106.32 -124 107 C-128.1196377 108.29243536 -131.66831683 109.26252625 -136 109 C-136.33 107.68 -136.66 106.36 -137 105 C-133.70450534 103.27735506 -130.66881155 101.70554068 -127 101 C-127 100.34 -127 99.68 -127 99 C-124.03 98.505 -124.03 98.505 -121 98 C-121 96.35 -121 94.7 -121 93 C-121.66 92.67 -122.32 92.34 -123 92 C-123.625 88.9375 -123.625 88.9375 -124 86 C-124.66 86 -125.32 86 -126 86 C-126.34855655 78.37048445 -126.0017506 72.07555499 -123 65 C-122.34 65 -121.68 65 -121 65 C-120.896875 64.2575 -120.79375 63.515 -120.6875 62.75 C-119.95066203 59.8026481 -119.05200858 58.21616926 -117 56 C-116.34 56 -115.68 56 -115 56 C-114.896875 55.2575 -114.79375 54.515 -114.6875 53.75 C-113.95066203 50.8026481 -113.05200858 49.21616926 -111 47 C-110.34 47 -109.68 47 -109 47 C-108.71125 46.4225 -108.4225 45.845 -108.125 45.25 C-107.75375 44.5075 -107.3825 43.765 -107 43 C-106.73445313 42.36707031 -106.46890625 41.73414063 -106.1953125 41.08203125 C-102.98702891 35.49374643 -95.79837645 31.40420487 -90 29 C-89.34 29 -88.68 29 -88 29 C-88 28.34 -88 27.68 -88 27 C-86.34151823 25.98648336 -84.67334039 24.98879205 -83 24 C-81.64631404 22.68733482 -80.31200404 21.35432675 -79 20 C-75.35714286 17 -75.35714286 17 -73 17 C-72.855625 16.360625 -72.71125 15.72125 -72.5625 15.0625 C-72 13 -72 13 -71 12 C-67.76840481 11.7124428 -64.53652278 11.55114997 -61.296875 11.37890625 C-58.09222211 11.16492177 -58.09222211 11.16492177 -55.66894531 10.02734375 C-52.72282254 8.89330747 -50.1363544 8.51462616 -47 8.18359375 C-45.865625 8.05919922 -44.73125 7.93480469 -43.5625 7.80664062 C-42.386875 7.68482422 -41.21125 7.56300781 -40 7.4375 C-37.66647037 7.18802726 -35.33312842 6.93679121 -33 6.68359375 C-31.96875 6.57587646 -30.9375 6.46815918 -29.875 6.35717773 C-27.21169079 6.02629956 -24.62263855 5.56436144 -22 5 C-21.67 4.01 -21.34 3.02 -21 2 C-19.00390625 1.3046875 -19.00390625 1.3046875 -16.5625 0.875 C-4.17512953 -1.39170984 -4.17512953 -1.39170984 0 0 Z " transform="translate(481,291)" style="fill: #24B451;"/><path d="M0 0 C1.875 0.25 1.875 0.25 4 1 C6.11103658 3.95545121 6.19785783 6.43855901 6 10 C6.66 10 7.32 10 8 10 C8.495 12.475 8.495 12.475 9 15 C9.66 15 10.32 15 11 15 C11.495 18.465 11.495 18.465 12 22 C12.66 22 13.32 22 14 22 C14.50744423 23.89385437 15.00564574 25.79018666 15.5 27.6875 C15.7784375 28.74324219 16.056875 29.79898438 16.34375 30.88671875 C16.9471456 33.74925619 17.30582463 36.09466603 17 39 C15.38263741 40.3927289 13.7074998 41.71937515 12 43 C10.65783025 44.99408077 9.3227887 46.99301025 8 49 C7.34 49 6.68 49 6 49 C4.47700477 51.93720508 3.19899698 54.9168649 2 58 C1.34 58 0.68 58 0 58 C-0.28875 58.886875 -0.5775 59.77375 -0.875 60.6875 C-1.83148748 63.50382424 -2.86798946 66.25083156 -4 69 C-4.66 69 -5.32 69 -6 69 C-6.226875 69.86625 -6.45375 70.7325 -6.6875 71.625 C-8.98932585 77.54398076 -13.04012052 81.21482882 -18 85 C-18.53625 85.5775 -19.0725 86.155 -19.625 86.75 C-21 88 -21 88 -24 88 C-24 88.66 -24 89.32 -24 90 C-26.14854524 92.6771011 -28.19532831 93.62993213 -31.4375 94.625 C-32.19933594 94.86476563 -32.96117187 95.10453125 -33.74609375 95.3515625 C-35.8215577 95.94866305 -37.90086028 96.49314622 -40 97 C-40 97.66 -40 98.32 -40 99 C-41.43429001 99.67354499 -42.87257057 100.33859701 -44.3125 101 C-45.11300781 101.37125 -45.91351562 101.7425 -46.73828125 102.125 C-49 103 -49 103 -52 103 C-52 103.66 -52 104.32 -52 105 C-54.475 105.495 -54.475 105.495 -57 106 C-57 106.66 -57 107.32 -57 108 C-57.99 108 -58.98 108 -60 108 C-60 107.34 -60 106.68 -60 106 C-58.606789 104.84045122 -57.15899265 103.74594208 -55.6875 102.6875 C-52.20827155 100.075352 -49.97172087 97.94344174 -48 94 C-47.01 93.505 -47.01 93.505 -46 93 C-45.67 92.01 -45.34 91.02 -45 90 C-44.34 90 -43.68 90 -43 90 C-42.938125 89.2575 -42.87625 88.515 -42.8125 87.75 C-41.7547503 84.16992409 -39.93137344 83.19853008 -37 81 C-36.505 79.515 -36.505 79.515 -36 78 C-35.34 78 -34.68 78 -34 78 C-33.7525 77.2575 -33.505 76.515 -33.25 75.75 C-32 73 -32 73 -30.125 71.25 C-27.04107252 67.98466502 -25.65920787 64.13036854 -24 60 C-23.34 60 -22.68 60 -22 60 C-21.71125 59.071875 -21.4225 58.14375 -21.125 57.1875 C-20 54 -20 54 -18 51 C-17.34 51 -16.68 51 -16 51 C-15.896875 50.29875 -15.79375 49.5975 -15.6875 48.875 C-14.89945728 45.57954861 -13.67130238 42.94149219 -12 40 C-11.34 39.67 -10.68 39.34 -10 39 C-8.20937414 35.31926906 -7.49456838 31.71469444 -6.875 27.6875 C-6.62363281 26.08455078 -6.62363281 26.08455078 -6.3671875 24.44921875 C-6.18542969 23.23685547 -6.18542969 23.23685547 -6 22 C-5.34 22 -4.68 22 -4 22 C-3.96261719 20.74703125 -3.92523437 19.4940625 -3.88671875 18.203125 C-3.82105115 16.55205379 -3.75460407 14.90101345 -3.6875 13.25 C-3.66494141 12.425 -3.64238281 11.6 -3.61914062 10.75 C-3.28449417 3.20524364 -3.28449417 3.20524364 0 0 Z " transform="translate(658,539)" style="fill: #FAFDFB;"/><path d="M0 0 C0 0.66 0 1.32 0 2 C0.66 2 1.32 2 2 2 C2 2.66 2 3.32 2 4 C2.92941406 3.97679687 3.85882813 3.95359375 4.81640625 3.9296875 C17.09490334 3.75043937 17.09490334 3.75043937 23 6 C23 6.66 23 7.32 23 8 C23.61488281 8.12117187 24.22976563 8.24234375 24.86328125 8.3671875 C26.07564453 8.61855469 26.07564453 8.61855469 27.3125 8.875 C28.11300781 9.03742187 28.91351563 9.19984375 29.73828125 9.3671875 C32 10 32 10 35 12 C35 12.66 35 13.32 35 14 C35.78375 14.061875 36.5675 14.12375 37.375 14.1875 C38.24125 14.455625 39.1075 14.72375 40 15 C40.71247732 16.6476038 41.37400383 18.31763529 42 20 C44.40144575 22.15449966 44.40144575 22.15449966 47 24 C48.8125 25.625 48.8125 25.625 50 27 C50 27.66 50 28.32 50 29 C49.34 29 48.68 29 48 29 C47.67 30.32 47.34 31.64 47 33 C45.35 32.67 43.7 32.34 42 32 C42 31.34 42 30.68 42 30 C41.40832031 29.81824219 40.81664062 29.63648438 40.20703125 29.44921875 C39.02173828 29.07216797 39.02173828 29.07216797 37.8125 28.6875 C37.03519531 28.44386719 36.25789063 28.20023438 35.45703125 27.94921875 C33 27 33 27 30.5625 25.53125 C27.83452706 23.90111983 25.18401087 22.85947368 22.1875 21.8125 C21.21167969 21.46832031 20.23585938 21.12414062 19.23046875 20.76953125 C18.12638672 20.38861328 18.12638672 20.38861328 17 20 C17 19.34 17 18.68 17 18 C15.39125 17.814375 15.39125 17.814375 13.75 17.625 C10.62136385 17.10356064 8.66519576 16.59911746 6 15 C6 16.65 6 18.3 6 20 C6.66 20 7.32 20 8 20 C8.50757862 21.41396902 9.00574925 22.83131729 9.5 24.25 C9.7784375 25.03890625 10.056875 25.8278125 10.34375 26.640625 C11 29 11 29 11 33 C9.02 33 7.04 33 5 33 C4.67 31.35 4.34 29.7 4 28 C4.66 28 5.32 28 6 28 C6 25.69 6 23.38 6 21 C4.68 21 3.36 21 2 21 C2 19.02 2 17.04 2 15 C1.34 15 0.68 15 0 15 C0 14.01 0 13.02 0 12 C-5.32677123 12.45142129 -8.46795837 13.06029732 -13 16 C-15.8125 16.6875 -15.8125 16.6875 -18 17 C-18 18.98 -18 20.96 -18 23 C-23.625 24.125 -23.625 24.125 -27 23 C-27 23.99 -27 24.98 -27 26 C-30.26235968 28.42346719 -33.07308191 29.23643259 -37 30 C-37.33 30.66 -37.66 31.32 -38 32 C-40.5625 32.625 -40.5625 32.625 -43 33 C-42.8125 31.1875 -42.8125 31.1875 -42 29 C-39.5 27.375 -39.5 27.375 -37 26 C-36.67 25.34 -36.34 24.68 -36 24 C-33.34243936 22.25160484 -31.02617555 21.00872518 -28 20 C-28 19.34 -28 18.68 -28 18 C-26.68 17.67 -25.36 17.34 -24 17 C-24 16.34 -24 15.68 -24 15 C-23.01 14.67 -22.02 14.34 -21 14 C-20.34 13.01 -19.68 12.02 -19 11 C-16.375 10.3125 -16.375 10.3125 -14 10 C-14.33 9.34 -14.66 8.68 -15 8 C-14.34 7.01 -13.68 6.02 -13 5 C-9.375 4.8125 -9.375 4.8125 -6 5 C-6.66 4.01 -7.32 3.02 -8 2 C-7.34 2 -6.68 2 -6 2 C-6 1.34 -6 0.68 -6 0 C-3.50907189 -1.24546405 -2.58919267 -0.7767578 0 0 Z " transform="translate(334,504)" style="fill: #25B451;"/><path d="M0 0 C0 0.99 0 1.98 0 3 C-0.804375 3.268125 -1.60875 3.53625 -2.4375 3.8125 C-3.283125 4.204375 -4.12875 4.59625 -5 5 C-5.33 5.99 -5.66 6.98 -6 8 C-6.66 8 -7.32 8 -8 8 C-8.2475 8.78375 -8.495 9.5675 -8.75 10.375 C-10.20780864 13.43639814 -11.07993473 13.58706519 -14 15 C-14.144375 15.61875 -14.28875 16.2375 -14.4375 16.875 C-15.26949254 20.01808293 -17.48967812 21.05450054 -20 23 C-20.495 24.485 -20.495 24.485 -21 26 C-21.66 26 -22.32 26 -23 26 C-23.495 27.485 -23.495 27.485 -24 29 C-24.66 29 -25.32 29 -26 29 C-26.2475 29.61875 -26.495 30.2375 -26.75 30.875 C-28.23740369 33.40358627 -29.43678009 33.71839004 -32 35 C-32.495 35.99 -32.495 35.99 -33 37 C-34.25808796 39.51617591 -35.5300397 39.80485792 -38 41 C-38.33 41.99 -38.66 42.98 -39 44 C-39.66 44 -40.32 44 -41 44 C-41 44.66 -41 45.32 -41 46 C-41.825 46.37125 -42.65 46.7425 -43.5 47.125 C-46.30422165 48.6272616 -48.37216036 50.034035 -50.8125 52 C-54.78377205 55.03730176 -58.95930235 57.44569648 -64 58 C-65.2684375 57.55527344 -65.2684375 57.55527344 -66.5625 57.1015625 C-71.46545811 55.53038729 -76.25516882 55.53354961 -81.375 55.375 C-82.39722656 55.33632813 -83.41945313 55.29765625 -84.47265625 55.2578125 C-86.98159597 55.16402036 -89.49053764 55.07832121 -92 55 C-92 53 -92 53 -90.88671875 51.41796875 C-88.23771766 49.42710457 -86.09072758 49.48874879 -82.8125 49.3125 C-81.18248047 49.21388672 -81.18248047 49.21388672 -79.51953125 49.11328125 C-78.27236328 49.05720703 -78.27236328 49.05720703 -77 49 C-77 48.34 -77 47.68 -77 47 C-75.0429132 46.32968281 -73.08428887 45.66385317 -71.125 45 C-70.03445313 44.62875 -68.94390625 44.2575 -67.8203125 43.875 C-65 43 -65 43 -63 43 C-63 42.34 -63 41.68 -63 41 C-60.03 40.505 -60.03 40.505 -57 40 C-57 39.34 -57 38.68 -57 38 C-54.03 37.505 -54.03 37.505 -51 37 C-50.67 36.01 -50.34 35.02 -50 34 C-48.2578125 33.15625 -48.2578125 33.15625 -46.125 32.5 C-43.65884626 31.73558334 -42.25733798 31.26117885 -40.4296875 29.40625 C-39 28 -39 28 -36 28 C-35.505 26.515 -35.505 26.515 -35 25 C-34.34 25 -33.68 25 -33 25 C-33 24.34 -33 23.68 -33 23 C-31.33333333 22 -29.66666667 21 -28 20 C-26.29115995 18.37660195 -24.62553283 16.70680947 -23 15 C-21.33333333 13.33333333 -19.66666667 11.66666667 -18 10 C-17.484375 9.401875 -16.96875 8.80375 -16.4375 8.1875 C-15 7 -15 7 -11 7 C-11 6.34 -11 5.68 -11 5 C-8.03 4.505 -8.03 4.505 -5 4 C-5 3.34 -5 2.68 -5 2 C-3.35 1.34 -1.7 0.68 0 0 Z " transform="translate(654,625)" style="fill: #F6FCF8;"/><path d="M0 0 C0.33 0 0.66 0 1 0 C1.47684503 6.96723568 0.90775055 12.02795932 -1.98828125 18.37890625 C-3.48975103 22.26881445 -3.92592038 26.21177132 -4.41015625 30.3359375 C-5.06114775 33.27617727 -5.93531801 34.82719252 -8 37 C-8.66 37 -9.32 37 -10 37 C-10.103125 37.763125 -10.20625 38.52625 -10.3125 39.3125 C-11.04711194 42.18416484 -11.6716065 43.23042094 -14 45 C-14.66 45 -15.32 45 -16 45 C-16.268125 45.86625 -16.53625 46.7325 -16.8125 47.625 C-18.3431113 51.97515844 -20.43579855 55.91673321 -22.5625 60 C-23.97692825 62.95185026 -25.03312658 65.87625511 -26 69 C-26.66 69 -27.32 69 -28 69 C-28.63286012 58.47870051 -29.10287377 47.97972444 -29.125 37.4375 C-29.12951172 36.5400708 -29.13402344 35.6426416 -29.13867188 34.71801758 C-29.13673828 33.88165771 -29.13480469 33.04529785 -29.1328125 32.18359375 C-29.13168457 31.44681396 -29.13055664 30.71003418 -29.12939453 29.95092773 C-29 28 -29 28 -28 25 C-26.34211215 23.65576661 -24.67423683 22.32381517 -23 21 C-21.65263027 19.34466005 -20.31665664 17.67987227 -19 16 C-18.34 15.67 -17.68 15.34 -17 15 C-16.67 14.01 -16.34 13.02 -16 12 C-15.34 12 -14.68 12 -14 12 C-13.7525 11.2575 -13.505 10.515 -13.25 9.75 C-11.8360584 6.63932847 -10.7656345 5.01816571 -8 3 C-4.25 2.75 -4.25 2.75 -1 3 C-0.67 2.01 -0.34 1.02 0 0 Z " transform="translate(704,443)" style="fill: #F9FDFA;"/><path d="M0 0 C2.25 -0.3125 2.25 -0.3125 5 0 C7 2.25 7 2.25 9 5 C9.825 5.66 10.65 6.32 11.5 7 C14.12955233 9.10364186 15.9529718 11.33886334 18 14 C20.12399867 16.37887851 20.86597409 16.9553247 24 18 C26.07530387 20.92079805 27 22.37546731 27 26 C27.66 26 28.32 26 29 26 C33.59225513 38.48519362 33.59225513 38.48519362 33 45 C33.66 45 34.32 45 35 45 C36.73313226 52.91054588 37.28174386 60.41486874 37.1875 68.5 C37.18685547 69.55058594 37.18621094 70.60117187 37.18554688 71.68359375 C37.147615 78.50290111 36.7312829 85.22069618 36 92 C35.01 92.33 34.02 92.66 33 93 C30.33212401 86.08777584 29.25775609 79.38436964 28.4296875 72.0625 C28.33170458 69.1310383 28.33170458 69.1310383 27 68 C26.55013775 64.5107323 26.18112027 61.02242674 25.83789062 57.52148438 C25.36359187 53.07541552 24.46847967 49.24568809 23 45 C23 43.68 23 42.36 23 41 C22.34 41 21.68 41 21 41 C20.67 37.37 20.34 33.74 20 30 C19.34 30 18.68 30 18 30 C17.67 28.02 17.34 26.04 17 24 C16.01 23.67 15.02 23.34 14 23 C12.11420063 19.78715662 11 17.75366417 11 14 C10.34 14 9.68 14 9 14 C5 7.25 5 7.25 5 5 C4.34 5 3.68 5 3 5 C1.375 3.625 1.375 3.625 0 2 C0 1.34 0 0.68 0 0 Z " transform="translate(673,327)" style="fill: #EEF9F1;"/><path d="M0 0 C0.99 0.33 1.98 0.66 3 1 C3 1.66 3 2.32 3 3 C3.680625 3.103125 4.36125 3.20625 5.0625 3.3125 C8.62915989 4.14725019 11.66222194 5.49472754 15 7 C15 7.66 15 8.32 15 9 C15.8353125 9.1546875 15.8353125 9.1546875 16.6875 9.3125 C20.76867592 10.52582257 24.2781804 12.70516575 27 16 C27 16.66 27 17.32 27 18 C27.928125 18.0928125 27.928125 18.0928125 28.875 18.1875 C29.57625 18.455625 30.2775 18.72375 31 19 C31.70211894 20.65204456 32.36971413 22.31923769 33 24 C33.99 24.33 34.98 24.66 36 25 C36 25.66 36 26.32 36 27 C36.763125 27.28875 37.52625 27.5775 38.3125 27.875 C41 29 41 29 44 31 C44 31.66 44 32.32 44 33 C44.598125 33.103125 45.19625 33.20625 45.8125 33.3125 C48.31258286 34.09824033 49.37535082 34.96918853 51 37 C51 37.66 51 38.32 51 39 C51.928125 39.433125 51.928125 39.433125 52.875 39.875 C55 41 55 41 57 43 C43.0889216 42.80127031 29.3216983 41.08393549 18.8125 30.875 C18.214375 30.25625 17.61625 29.6375 17 29 C16.01 28.34 15.02 27.68 14 27 C14 26.01 14 25.02 14 24 C13.34 24 12.68 24 12 24 C8 18.58823529 8 18.58823529 8 16 C7.34 16 6.68 16 6 16 C5.67 14.02 5.34 12.04 5 10 C4.34 10 3.68 10 3 10 C0.4606772 6.58168085 -0.3636198 4.24223102 0 0 Z " transform="translate(439,635)" style="fill: #F8FCF9;"/><path d="M0 0 C1.07290283 0.0012085 1.07290283 0.0012085 2.16748047 0.00244141 C3.25585205 0.0036499 3.25585205 0.0036499 4.36621094 0.00488281 C10.01370608 0.06893046 15.26999596 0.69234565 20.72998047 2.18994141 C22.43154297 2.62306641 22.43154297 2.62306641 24.16748047 3.06494141 C27.07006654 4.33924749 28.18699267 5.44685198 29.72998047 8.18994141 C29.72998047 8.84994141 29.72998047 9.50994141 29.72998047 10.18994141 C25.10998047 10.18994141 20.48998047 10.18994141 15.72998047 10.18994141 C15.72998047 10.84994141 15.72998047 11.50994141 15.72998047 12.18994141 C13.67035195 12.86542719 11.60713725 13.52998452 9.54248047 14.18994141 C8.39392578 14.56119141 7.24537109 14.93244141 6.06201172 15.31494141 C3.08677235 16.09624694 0.77714151 16.37357446 -2.27001953 16.18994141 C-2.27001953 16.84994141 -2.27001953 17.50994141 -2.27001953 18.18994141 C-10.70786443 22.07135006 -18.03871152 22.32437793 -27.27001953 22.18994141 C-25.95751953 20.18994141 -25.95751953 20.18994141 -24.27001953 18.18994141 C-23.28001953 18.18994141 -22.29001953 18.18994141 -21.27001953 18.18994141 C-21.02251953 17.38556641 -20.77501953 16.58119141 -20.52001953 15.75244141 C-20.10751953 14.90681641 -19.69501953 14.06119141 -19.27001953 13.18994141 C-17.94698236 12.8178372 -16.61264018 12.48363967 -15.27001953 12.18994141 C-14.05676709 10.23525692 -13.29919838 8.2640108 -12.45751953 6.12744141 C-10.87125721 3.5393292 -8.90825027 2.61052719 -6.27001953 1.18994141 C-4.53750085 -0.54257727 -2.31007131 0.02507918 0 0 Z " transform="translate(627.27001953125,313.81005859375)" style="fill: #F6FBF7;"/><path d="M0 0 C-5.59597983 2.88413267 -11.66498426 4.40871069 -18 4 C-18 4.66 -18 5.32 -18 6 C-18.91523437 6.13277344 -19.83046875 6.26554688 -20.7734375 6.40234375 C-21.96195313 6.57894531 -23.15046875 6.75554688 -24.375 6.9375 C-25.55835938 7.11152344 -26.74171875 7.28554688 -27.9609375 7.46484375 C-30.90702381 7.83462786 -30.90702381 7.83462786 -33 9 C-36.38959136 9.26724768 -39.78855332 9.23161489 -43.1875 9.25 C-44.12142578 9.270625 -45.05535156 9.29125 -46.01757812 9.3125 C-51.81511546 9.3451392 -55.85342462 8.70497738 -61 6 C-61 5.34 -61 4.68 -61 4 C-63.475 3.01 -63.475 3.01 -66 2 C-66 1.67 -66 1.34 -66 1 C-43.9942125 -0.08627755 -22.02640819 -0.1109084 0 0 Z " transform="translate(583,686)" style="fill: #ECF8F0;"/><path d="M0 0 C0.33 0 0.66 0 1 0 C1.48810735 10.56210062 0.83184141 19.00984204 -3 29 C-3.66 29 -4.32 29 -5 29 C-5.103125 29.86625 -5.20625 30.7325 -5.3125 31.625 C-6.03398414 35.16683123 -7.27123261 37.84312042 -9 41 C-9.66 41 -10.32 41 -11 41 C-11.33 42.65 -11.66 44.3 -12 46 C-12.66 46 -13.32 46 -14 46 C-14.33 47.32 -14.66 48.64 -15 50 C-15.66 50 -16.32 50 -17 50 C-17.2475 50.61875 -17.495 51.2375 -17.75 51.875 C-19.20628639 54.35068687 -20.37812506 54.95125002 -23 56 C-23 56.66 -23 57.32 -23 58 C-29.75 62 -29.75 62 -32 62 C-32.33 62.99 -32.66 63.98 -33 65 C-35.5625 66.1875 -35.5625 66.1875 -38 67 C-38 66.34 -38 65.68 -38 65 C-37.01 64.505 -37.01 64.505 -36 64 C-35.67 63.01 -35.34 62.02 -35 61 C-30.68181818 56.22727273 -30.68181818 56.22727273 -27 55 C-27 54.34 -27 53.68 -27 53 C-25.125 50.875 -25.125 50.875 -23 49 C-22.34 49 -21.68 49 -21 49 C-20.71125 48.236875 -20.4225 47.47375 -20.125 46.6875 C-19 44 -19 44 -17 41 C-16.34 41 -15.68 41 -15 41 C-14.896875 40.46375 -14.79375 39.9275 -14.6875 39.375 C-13.81907303 36.37497956 -12.44379704 33.7620465 -11 31 C-10.34 31 -9.68 31 -9 31 C-8.67 29.35 -8.34 27.7 -8 26 C-7.34 26 -6.68 26 -6 26 C-5.67 24.02 -5.34 22.04 -5 20 C-4.34 20 -3.68 20 -3 20 C-1.28878246 15.47849025 -0.64776388 11.44382847 -0.375 6.625 C-0.30023437 5.37976563 -0.22546875 4.13453125 -0.1484375 2.8515625 C-0.09945312 1.91054688 -0.05046875 0.96953125 0 0 Z " transform="translate(681,580)" style="fill: #E9F7ED;"/><path d="M0 0 C2.97 0 5.94 0 9 0 C6.75 4.5 6.75 4.5 3 6 C3 6.66 3 7.32 3 8 C1.68 8.33 0.36 8.66 -1 9 C-1 9.66 -1 10.32 -1 11 C-7.93 11 -14.86 11 -22 11 C-22 10.34 -22 9.68 -22 9 C-22.763125 8.9175 -23.52625 8.835 -24.3125 8.75 C-27.52373261 7.85384206 -28.29374499 6.78388975 -30 4 C-23.65811536 1.71512241 -17.75420732 1.76700224 -11.0625 1.875 C-9.99708984 1.88402344 -8.93167969 1.89304687 -7.83398438 1.90234375 C-5.22241966 1.92576586 -2.61133063 1.95856548 0 2 C0 1.34 0 0.68 0 0 Z " transform="translate(565,660)" style="fill: #EAF7EE;"/><path d="M0 0 C0.33 0 0.66 0 1 0 C2.27947184 6.65941972 1.81115003 10.81546992 -1 17 C-0.01 17.33 0.98 17.66 2 18 C2 18.99 2 19.98 2 21 C2.66 21 3.32 21 4 21 C4 22.98 4 24.96 4 27 C2.35 27.33 0.7 27.66 -1 28 C-1.495 25.525 -1.495 25.525 -2 23 C-4.97 23.33 -7.94 23.66 -11 24 C-11 24.66 -11 25.32 -11 26 C-15.1196377 27.29243536 -18.66831683 28.26252625 -23 28 C-23.33 26.68 -23.66 25.36 -24 24 C-20.70450534 22.27735506 -17.66881155 20.70554068 -14 20 C-14 19.34 -14 18.68 -14 18 C-12.02 17.67 -10.04 17.34 -8 17 C-7.86078125 15.95779297 -7.86078125 15.95779297 -7.71875 14.89453125 C-6.84913461 11.39243885 -5.34487821 8.78371978 -3.5 5.6875 C-2.8709375 4.61886719 -2.241875 3.55023438 -1.59375 2.44921875 C-1.0678125 1.64097656 -0.541875 0.83273437 0 0 Z " transform="translate(368,372)" style="fill: #EB2028;"/><path d="M0 0 C1.32 0.33 2.64 0.66 4 1 C3.0409375 1.309375 3.0409375 1.309375 2.0625 1.625 C-0.34925077 2.89538209 -0.34925077 2.89538209 -0.75 6.125 C-0.8325 7.07375 -0.915 8.0225 -1 9 C-1.66 9 -2.32 9 -3 9 C-3.33 10.32 -3.66 11.64 -4 13 C-4.66 13 -5.32 13 -6 13 C-6.2475 13.7425 -6.495 14.485 -6.75 15.25 C-8.09904793 18.21790544 -9.68050687 19.75532923 -12 22 C-12.33 22.99 -12.66 23.98 -13 25 C-13.66 25 -14.32 25 -15 25 C-15.33 25.99 -15.66 26.98 -16 28 C-16.66 28 -17.32 28 -18 28 C-18.07347656 28.74636719 -18.14695312 29.49273437 -18.22265625 30.26171875 C-19.20847447 33.73437488 -20.55885706 34.69842463 -23.4375 36.8125 C-24.24058594 37.41707031 -25.04367187 38.02164063 -25.87109375 38.64453125 C-28 40 -28 40 -30 40 C-30.33 40.66 -30.66 41.32 -31 42 C-30.505 39.03 -30.505 39.03 -30 36 C-29.34 36 -28.68 36 -28 36 C-27.896875 35.113125 -27.79375 34.22625 -27.6875 33.3125 C-26.72070749 28.6543179 -24.69273508 25.05052029 -21 22 C-20.34 22 -19.68 22 -19 22 C-18.67 20.68 -18.34 19.36 -18 18 C-17.34 18 -16.68 18 -16 18 C-15.7525 17.38125 -15.505 16.7625 -15.25 16.125 C-13.77229238 13.61289704 -12.56044823 13.23892656 -10 12 C-9.67 11.01 -9.34 10.02 -9 9 C-8.34 9 -7.68 9 -7 9 C-7 8.34 -7 7.68 -7 7 C-6.01 6.67 -5.02 6.34 -4 6 C-3.67 5.34 -3.34 4.68 -3 4 C-2.34 4 -1.68 4 -1 4 C-0.67 2.68 -0.34 1.36 0 0 Z " transform="translate(406,338)" style="fill: #F5FBF7;"/><path d="M0 0 C-0.51405169 4.96916636 -1.23384882 9.29026351 -3 14 C-3.66 14 -4.32 14 -5 14 C-5 15.32 -5 16.64 -5 18 C-5.66 18 -6.32 18 -7 18 C-7.226875 18.886875 -7.45375 19.77375 -7.6875 20.6875 C-10.09094838 26.75334592 -14.71444284 29.51633733 -20 33 C-20.33 33.66 -20.66 34.32 -21 35 C-21.66 35 -22.32 35 -23 35 C-21 31 -19 27 -17 23 C-16.34 23 -15.68 23 -15 23 C-14.896875 22.29875 -14.79375 21.5975 -14.6875 20.875 C-13.89945728 17.57954861 -12.67130238 14.94149219 -11 12 C-10.34 11.67 -9.68 11.34 -9 11 C-8.67 10.01 -8.34 9.02 -8 8 C-7.34 8 -6.68 8 -6 8 C-5.67 7.01 -5.34 6.02 -5 5 C-4.34 5 -3.68 5 -3 5 C-2.855625 4.360625 -2.71125 3.72125 -2.5625 3.0625 C-1.72727273 0 -1.72727273 0 0 0 Z " transform="translate(675,585)" style="fill: #EDF8F0;"/><path d="M0 0 C0.66 0.33 1.32 0.66 2 1 C0.6875 2.5 0.6875 2.5 -1 4 C-1.99 4 -2.98 4 -4 4 C-4.33 4.99 -4.66 5.98 -5 7 C-5.66 7 -6.32 7 -7 7 C-7 7.66 -7 8.32 -7 9 C-7.95712891 9.39832031 -7.95712891 9.39832031 -8.93359375 9.8046875 C-9.75988281 10.15789063 -10.58617187 10.51109375 -11.4375 10.875 C-12.26121094 11.22304688 -13.08492187 11.57109375 -13.93359375 11.9296875 C-16.15746715 12.8244937 -16.15746715 12.8244937 -17 15 C-18.9609375 16.0703125 -18.9609375 16.0703125 -21.375 17.125 C-22.16648437 17.47820313 -22.95796875 17.83140625 -23.7734375 18.1953125 C-26 19 -26 19 -29 19 C-29 19.66 -29 20.32 -29 21 C-33.93387858 23.25861997 -38.80355921 25.40109514 -44 27 C-43.67 26.01 -43.34 25.02 -43 24 C-42.34 24 -41.68 24 -41 24 C-40.67 23.01 -40.34 22.02 -40 21 C-39.01 21 -38.02 21 -37 21 C-37 20.34 -37 19.68 -37 19 C-34.00893216 16.63496961 -31.97138418 15.08446819 -28.125 14.75 C-27.42375 14.8325 -26.7225 14.915 -26 15 C-26 14.34 -26 13.68 -26 13 C-24.39850114 12.32694982 -22.79368971 11.66177773 -21.1875 11 C-20.29417969 10.62875 -19.40085937 10.2575 -18.48046875 9.875 C-16 9 -16 9 -13 9 C-13 8.34 -13 7.68 -13 7 C-11.73308493 6.32591692 -10.46129251 5.66099503 -9.1875 5 C-8.47980469 4.62875 -7.77210938 4.2575 -7.04296875 3.875 C-5 3 -5 3 -2 3 C-2 2.34 -2 1.68 -2 1 C-1.34 0.67 -0.68 0.34 0 0 Z " transform="translate(620,641)" style="fill: #EBF8EF;"/><path d="M0 0 C5.33789272 1.65220489 10.05755368 3.98830921 15 6.5625 C17.99491919 8.08119796 17.99491919 8.08119796 21.3125 9.0625 C24 10 24 10 25 12 C26.88013106 13.12224855 26.88013106 13.12224855 29.0625 14.125 C29.79597656 14.47820313 30.52945313 14.83140625 31.28515625 15.1953125 C32.13400391 15.59363281 32.13400391 15.59363281 33 16 C33 16.66 33 17.32 33 18 C33.99 18.33 34.98 18.66 36 19 C34.083412 19.02712153 32.1667127 19.04645097 30.25 19.0625 C28.64898438 19.07990234 28.64898438 19.07990234 27.015625 19.09765625 C24.44900837 19.01454043 22.39800183 18.89084647 20 18 C19.67 17.34 19.34 16.68 19 16 C18.01 15.67 17.02 15.34 16 15 C14.66666667 13.33333333 13.33333333 11.66666667 12 10 C11.01 9.67 10.02 9.34 9 9 C9 8.34 9 7.68 9 7 C8.01 6.67 7.02 6.34 6 6 C6 5.34 6 4.68 6 4 C5.195625 3.71125 4.39125 3.4225 3.5625 3.125 C1 2 1 2 0 0 Z " transform="translate(486,662)" style="fill: #ECF8F0;"/><path d="M0 0 C0.66 0 1.32 0 2 0 C2.33 1.65 2.66 3.3 3 5 C3.66 5 4.32 5 5 5 C5.33 6.98 5.66 8.96 6 11 C6.66 11 7.32 11 8 11 C8.67305018 12.60149886 9.33822227 14.20631029 10 15.8125 C10.37125 16.70582031 10.7425 17.59914063 11.125 18.51953125 C12 21 12 21 12 24 C12.66 24 13.32 24 14 24 C14.81381795 25.93694678 15.62600916 27.87457711 16.4375 29.8125 C17.11619141 31.43091797 17.11619141 31.43091797 17.80859375 33.08203125 C18.60375013 35.0295126 19.33479648 37.00438943 20 39 C17.00306862 38.00102287 15.97290587 37.34869747 14 35 C14 34.34 14 33.68 14 33 C13.01 32.67 12.02 32.34 11 32 C11 31.01 11 30.02 11 29 C10.34 29 9.68 29 9 29 C8.67 25.37 8.34 21.74 8 18 C7.34 18 6.68 18 6 18 C5.32779649 16.06441401 4.66241923 14.12645628 4 12.1875 C3.62875 11.10855469 3.2575 10.02960937 2.875 8.91796875 C2 6 2 6 2 3 C1.34 3 0.68 3 0 3 C0 2.01 0 1.02 0 0 Z " transform="translate(412,582)" style="fill: #E4F5E9;"/><path d="M0 0 C5.39170679 0.37616559 7.4355362 2.03948467 11 6 C11.66 6.33 12.32 6.66 13 7 C13 7.66 13 8.32 13 9 C13.99 9.33 14.98 9.66 16 10 C16.4640625 11.2375 16.4640625 11.2375 16.9375 12.5 C17.288125 13.325 17.63875 14.15 18 15 C20.01508358 15.73323796 20.01508358 15.73323796 22 16 C22.33 16.66 22.66 17.32 23 18 C23.598125 18.0825 24.19625 18.165 24.8125 18.25 C28.20803549 19.4141836 29.22274002 22.01674218 31 25 C27.33118845 24.29445932 24.29549466 22.72264494 21 21 C21 20.34 21 19.68 21 19 C20.236875 18.87625 19.47375 18.7525 18.6875 18.625 C15.0624311 17.78196072 13.39170466 16.5803032 11.3125 13.5 C10 11 10 11 10 9 C9.01 9 8.02 9 7 9 C5.98133771 7.34467377 4.98189187 5.67739862 4 4 C3.01 3.67 2.02 3.34 1 3 C0.67 2.01 0.34 1.02 0 0 Z " transform="translate(501,305)" style="fill: #F1FAF3;"/><path d="M0 0 C0.33 0 0.66 0 1 0 C1 1.98 1 3.96 1 6 C1.66 6 2.32 6 3 6 C3.77040851 12.06696699 4.09706112 17.88514973 4 24 C2.68 24.33 1.36 24.66 0 25 C-0.19335938 24.43410156 -0.38671875 23.86820313 -0.5859375 23.28515625 C-0.84632813 22.55167969 -1.10671875 21.81820312 -1.375 21.0625 C-1.63023437 20.33160156 -1.88546875 19.60070312 -2.1484375 18.84765625 C-2.85271413 16.81317884 -2.85271413 16.81317884 -5 16 C-5 14.68 -5 13.36 -5 12 C-4.34 12 -3.68 12 -3 12 C-2.01 8.04 -1.02 4.08 0 0 Z " transform="translate(675,533)" style="fill: #F1FAF3;"/><path d="M0 0 C0 0.66 0 1.32 0 2 C2.31 2.33 4.62 2.66 7 3 C7 3.66 7 4.32 7 5 C8.98 5 10.96 5 13 5 C13 5.33 13 5.66 13 6 C10.4374282 6.02710123 7.87514635 6.04688771 5.3125 6.0625 C4.2306543 6.07506836 4.2306543 6.07506836 3.12695312 6.08789062 C-0.69120921 6.10532516 -4.32716553 6.11659786 -8 5 C-8.33 4.34 -8.66 3.68 -9 3 C-12.02934491 2.34227572 -12.02934491 2.34227572 -15 2 C-9.66618013 -1.55587991 -6.16320363 -0.92448054 0 0 Z " transform="translate(480,297)" style="fill: #E4F5E9;"/><path d="M0 0 C1.5 2.0625 1.5 2.0625 2 4 C0.68 4.99 -0.64 5.98 -2 7 C-2.66 6.67 -3.32 6.34 -4 6 C-4.33 7.32 -4.66 8.64 -5 10 C-6.65 10 -8.3 10 -10 10 C-10 6.7 -10 3.4 -10 0 C-6.76369066 -1.61815467 -3.41944272 -0.97077399 0 0 Z " transform="translate(296,473)" style="fill: #20B34D;"/><path d="M0 0 C0.99 0.33 1.98 0.66 3 1 C3 5 3 5 0.9375 7.1875 C0.48632812 7.59742188 0.03515625 8.00734375 -0.4296875 8.4296875 C-3.09227833 11.09227833 -5.22156471 14.17919993 -7.44921875 17.20703125 C-7.96097656 17.79871094 -8.47273438 18.39039063 -9 19 C-9.66 19 -10.32 19 -11 19 C-11.33 19.99 -11.66 20.98 -12 22 C-13 19 -13 19 -12.0625 16.8125 C-11.5365625 15.9153125 -11.5365625 15.9153125 -11 15 C-10.34 15 -9.68 15 -9 15 C-8.8453125 14.1646875 -8.8453125 14.1646875 -8.6875 13.3125 C-7.85821592 10.5230899 -6.65700944 8.3860936 -5 6 C-4.34 6 -3.68 6 -3 6 C-2.690625 5.195625 -2.38125 4.39125 -2.0625 3.5625 C-1 1 -1 1 0 0 Z " transform="translate(375,341)" style="fill: #EEF9F1;"/><path d="M0 0 C5.42039575 -0.40652968 9.07015675 0.96006486 14 3 C14 3.66 14 4.32 14 5 C16.31 5.33 18.62 5.66 21 6 C21 6.66 21 7.32 21 8 C23.475 8.495 23.475 8.495 26 9 C26.33 9.99 26.66 10.98 27 12 C24.03 11.505 24.03 11.505 21 11 C21 10.34 21 9.68 21 9 C19.96875 8.896875 18.9375 8.79375 17.875 8.6875 C14.04916055 8.00872203 11.36629975 6.88841205 8 5 C8 4.34 8 3.68 8 3 C5.36 2.67 2.72 2.34 0 2 C0 1.34 0 0.68 0 0 Z " transform="translate(343,513)" style="fill: #E3F5E8;"/><path d="M0 0 C0.66 0 1.32 0 2 0 C2 0.99 2 1.98 2 3 C0.36368108 4.04892238 -1.30485863 5.04906703 -3 6 C-3.33 6.66 -3.66 7.32 -4 8 C-4.66 8 -5.32 8 -6 8 C-6.33 8.99 -6.66 9.98 -7 11 C-8.62332967 12.38576923 -10.28724465 13.72641268 -12 15 C-12.99 14.01 -13.98 13.02 -15 12 C-14.34 11.67 -13.68 11.34 -13 11 C-12.67 10.01 -12.34 9.02 -12 8 C-11.34 8 -10.68 8 -10 8 C-10 7.34 -10 6.68 -10 6 C-9.36191406 5.73445313 -8.72382813 5.46890625 -8.06640625 5.1953125 C-7.24011719 4.84210938 -6.41382813 4.48890625 -5.5625 4.125 C-4.73878906 3.77695312 -3.91507812 3.42890625 -3.06640625 3.0703125 C-0.84253285 2.1755063 -0.84253285 2.1755063 0 0 Z " transform="translate(394,324)" style="fill: #EAF6ED;"/><path d="M0 0 C0.66 0.33 1.32 0.66 2 1 C0.8125 3.4375 0.8125 3.4375 -1 6 C-2.66014616 6.36442233 -4.32706064 6.69972883 -6 7 C-7.27489266 8.79927039 -7.27489266 8.79927039 -8 11 C-8.8125 13.1875 -8.8125 13.1875 -10 15 C-12.625 15.75 -12.625 15.75 -15 16 C-14.38722388 13.03824877 -13.74627478 11.61941217 -12 9 C-11.34 9 -10.68 9 -10 9 C-9.79375 8.38125 -9.5875 7.7625 -9.375 7.125 C-7.45224112 4.15346355 -5.33405473 3.86975341 -2 3 C-2 2.34 -2 1.68 -2 1 C-1.34 0.67 -0.68 0.34 0 0 Z " transform="translate(424,311)" style="fill: #E7F6EC;"/><path d="M0 0 C12.87 0 25.74 0 39 0 C34.60171741 2.1991413 31.81449408 2.51855059 27 3 C27 2.67 27 2.34 27 2 C18.09 1.67 9.18 1.34 0 1 C0 0.67 0 0.34 0 0 Z " transform="translate(544,686)" style="fill: #E1F4E7;"/><path d="M0 0 C4.95 0 9.9 0 15 0 C14.67 0.99 14.34 1.98 14 3 C13.01 3 12.02 3 11 3 C11 3.66 11 4.32 11 5 C10.34 5 9.68 5 9 5 C9 4.01 9 3.02 9 2 C6.03 2 3.06 2 0 2 C0 1.34 0 0.68 0 0 Z " transform="translate(541,675)" style="fill: #C0E9CB;"/><path d="M0 0 C3.91090062 0.26665231 5.581069 0.59181082 8.4375 3.375 C8.953125 4.24125 9.46875 5.1075 10 6 C9.67 6.99 9.34 7.98 9 9 C8.34 9 7.68 9 7 9 C6.525625 8.195625 6.05125 7.39125 5.5625 6.5625 C4.20016328 3.7081924 4.20016328 3.7081924 1 3 C0.67 2.01 0.34 1.02 0 0 Z " transform="translate(501,305)" style="fill: #CFEED8;"/><path d="M0 0 C0 0.99 0 1.98 0 3 C-0.66 3 -1.32 3 -2 3 C-2 3.66 -2 4.32 -2 5 C-2.99 5 -3.98 5 -5 5 C-5.28875 5.639375 -5.5775 6.27875 -5.875 6.9375 C-7 9 -7 9 -9 10 C-9 8.35 -9 6.7 -9 5 C-6.03 3.35 -3.06 1.7 0 0 Z " transform="translate(297,505)" style="fill: #4DC06D;"/><path d="M0 0 C0.25532751 3.06393013 0.21861333 4.63233212 -1.375 7.3125 C-2.179375 8.1478125 -2.179375 8.1478125 -3 9 C-3.66 9 -4.32 9 -5 9 C-5.33 9.99 -5.66 10.98 -6 12 C-7 9 -7 9 -6.0625 6.8125 C-5.711875 6.214375 -5.36125 5.61625 -5 5 C-4.34 5 -3.68 5 -3 5 C-2.855625 4.360625 -2.71125 3.72125 -2.5625 3.0625 C-1.72727273 0 -1.72727273 0 0 0 Z " transform="translate(369,351)" style="fill: #DAF2E2;"/><path d="M0 0 C1.65 0 3.3 0 5 0 C5 1.65 5 3.3 5 5 C3.35 5 1.7 5 0 5 C0 3.35 0 1.7 0 0 Z " transform="translate(375,336)" style="fill: #060E09;"/><path d="M0 0 C0.33 0 0.66 0 1 0 C1 5.94 1 11.88 1 18 C0.01 18 -0.98 18 -2 18 C-2 17.01 -2 16.02 -2 15 C-1.34 15 -0.68 15 0 15 C0 10.05 0 5.1 0 0 Z " transform="translate(696,417)" style="fill: #3CBC63;"/><path d="M0 0 C2.25 -0.375 2.25 -0.375 5 0 C7.3125 3 7.3125 3 9 6 C5.51669784 5.35494404 2.90567134 4.01782732 0 2 C0 1.34 0 0.68 0 0 Z " transform="translate(523,324)" style="fill: #D1EFDA;"/><path d="M0 0 C0.66 0.33 1.32 0.66 2 1 C2 1.99 2 2.98 2 4 C0.35 4.33 -1.3 4.66 -3 5 C-3 5.66 -3 6.32 -3 7 C-3.99 7 -4.98 7 -6 7 C-6 6.34 -6 5.68 -6 5 C-4.04072937 3.2856382 -2.04119788 1.61594832 0 0 Z " transform="translate(604,640)" style="fill: #D3EFDB;"/><path d="M0 0 C0.99 0 1.98 0 3 0 C3 0.99 3 1.98 3 3 C2.34 3 1.68 3 1 3 C1 7.29 1 11.58 1 16 C0.67 16 0.34 16 0 16 C0 10.72 0 5.44 0 0 Z " transform="translate(705,425)" style="fill: #A0DDB2;"/><path d="M0 0 C2.97 0 5.94 0 9 0 C9.66 1.32 10.32 2.64 11 4 C8.03 3.505 8.03 3.505 5 3 C5 2.34 5 1.68 5 1 C3.35 1 1.7 1 0 1 C0 0.67 0 0.34 0 0 Z " transform="translate(652,329)" style="fill: #DEF3E4;"/><path d="M0 0 C0.66 0.33 1.32 0.66 2 1 C0.6875 2.5 0.6875 2.5 -1 4 C-1.99 4 -2.98 4 -4 4 C-4.33 4.99 -4.66 5.98 -5 7 C-5.99 6.67 -6.98 6.34 -8 6 C-6.6875 4.5 -6.6875 4.5 -5 3 C-4.01 3 -3.02 3 -2 3 C-2 2.34 -2 1.68 -2 1 C-1.34 0.67 -0.68 0.34 0 0 Z " transform="translate(620,641)" style="fill: #CDEDD7;"/><path d="M0 0 C0.66 0 1.32 0 2 0 C2 0.99 2 1.98 2 3 C0.02 3.99 -1.96 4.98 -4 6 C-4.99 5.34 -5.98 4.68 -7 4 C-6.030625 3.71125 -5.06125 3.4225 -4.0625 3.125 C-0.89335797 2.35785318 -0.89335797 2.35785318 0 0 Z " transform="translate(394,324)" style="fill: #DAF2E1;"/><path d="M0 0 C2.875 -0.125 2.875 -0.125 6 0 C6.66 0.66 7.32 1.32 8 2 C4.71303767 2.79953138 3.28976808 3.09658936 0 2 C0 1.34 0 0.68 0 0 Z " transform="translate(343,513)" style="fill: #ADE2BC;"/><path d="M0 0 C1.98 0.495 1.98 0.495 4 1 C4 1.99 4 2.98 4 4 C2.35 3.67 0.7 3.34 -1 3 C-0.67 2.01 -0.34 1.02 0 0 Z " transform="translate(393,341)" style="fill: #000801;"/><path d="M0 0 C1.32 0.33 2.64 0.66 4 1 C3.360625 1.2475 2.72125 1.495 2.0625 1.75 C-0.18741541 2.81562433 -0.18741541 2.81562433 -0.75 5.125 C-0.8325 5.74375 -0.915 6.3625 -1 7 C-1 6.34 -1 5.68 -1 5 C-1.66 4.67 -2.32 4.34 -3 4 C-2.34 4 -1.68 4 -1 4 C-0.67 2.68 -0.34 1.36 0 0 Z " transform="translate(406,338)" style="fill: #D4F0DC;"/></svg>