<?xml version="1.0" standalone="no"?>
<!DOCTYPE svg PUBLIC "-//W3C//DTD SVG 20010904//EN"
 "http://www.w3.org/TR/2001/REC-SVG-20010904/DTD/svg10.dtd">
<svg version="1.0" xmlns="http://www.w3.org/2000/svg"
 width="900.000000pt" height="900.000000pt" viewBox="0 0 900.000000 900.000000"
 preserveAspectRatio="xMidYMid meet">
<metadata>
Created by potrace 1.10, written by Peter Selinger 2001-2011
</metadata>
<g transform="translate(0.000000,900.000000) scale(0.100000,-0.100000)"
fill="#000000" stroke="none">
<path d="M2247 6948 c-9 -6 -9 -12 -1 -25 9 -15 32 -19 125 -25 193 -12 265
-50 300 -160 16 -49 18 -142 18 -1319 1 -1127 -1 -1271 -15 -1319 -20 -67 -49
-107 -94 -129 -33 -17 -178 -39 -285 -44 -46 -2 -50 -4 -50 -27 l0 -25 642 -3
643 -2 14 -23 c7 -12 16 -43 19 -68 9 -69 80 -273 128 -364 91 -175 250 -376
379 -476 30 -24 57 -47 60 -50 11 -16 200 -131 265 -162 97 -47 209 -92 280
-112 33 -9 74 -21 90 -26 17 -4 50 -11 75 -15 25 -3 79 -13 120 -21 117 -23
615 -23 735 0 103 21 249 55 279 67 126 48 147 57 256 108 47 22 93 46 102 54
22 17 36 106 48 311 5 89 12 194 16 233 6 62 4 72 -11 78 -25 9 -43 -9 -59
-63 -39 -122 -107 -263 -164 -341 -15 -19 -31 -41 -37 -49 -16 -23 -169 -170
-177 -171 -3 0 -37 -20 -75 -45 -37 -25 -73 -45 -79 -45 -6 0 -33 -9 -60 -21
-27 -11 -58 -24 -69 -28 -107 -43 -414 -54 -595 -22 -119 21 -217 48 -225 62
-4 5 -15 9 -25 9 -10 0 -33 8 -52 17 -18 9 -44 22 -58 28 -179 86 -373 239
-505 398 -128 155 -248 383 -305 577 -12 41 -26 88 -31 104 -17 56 -18 56 341
56 181 0 336 3 345 6 34 14 42 55 49 259 4 110 14 245 22 300 18 131 18 154
-2 162 -23 9 -40 -18 -47 -75 -8 -63 -50 -191 -90 -272 -20 -40 -56 -90 -97
-131 -109 -109 -204 -146 -405 -156 -103 -5 -122 -4 -134 10 -9 11 -15 58 -18
139 -10 227 33 499 109 698 25 66 104 215 153 290 132 199 416 409 655 485 30
10 66 22 80 28 80 32 381 59 560 50 140 -7 331 -51 365 -84 5 -5 15 -9 21 -9
28 0 144 -80 215 -147 42 -40 99 -106 127 -147 56 -81 130 -230 157 -316 27
-87 44 -120 59 -120 27 0 34 24 25 90 -13 103 -29 255 -40 380 -17 196 -19
199 -164 259 -44 18 -89 37 -100 42 -68 29 -191 66 -265 79 -30 5 -75 14 -100
19 -25 5 -139 13 -255 16 -239 8 -443 -5 -580 -35 -49 -12 -108 -24 -130 -29
-61 -13 -167 -42 -184 -51 -9 -4 -32 -14 -51 -23 -126 -53 -279 -138 -370
-205 -159 -118 -337 -318 -415 -469 -20 -36 -39 -71 -44 -77 -4 -6 -11 -20
-14 -31 -3 -11 -15 -45 -27 -75 -12 -30 -30 -86 -40 -125 -49 -189 -52 -212
-55 -423 -1 -114 -3 -210 -4 -214 -3 -18 -361 1 -427 23 -49 15 -95 55 -118
101 l-21 43 0 1295 0 1295 22 40 c27 50 68 89 113 105 19 7 93 18 164 24 103
9 131 14 140 28 5 9 8 20 5 23 -9 8 -1139 11 -1152 3z"/>
<path d="M575 1538 c-3 -7 -4 -166 -3 -353 l3 -340 207 -3 208 -2 6 25 c3 14
3 36 0 50 l-6 25 -138 0 c-95 0 -143 4 -155 13 -15 11 -17 44 -19 302 l-3 290
-48 3 c-32 2 -49 -1 -52 -10z"/>
<path d="M1527 1544 c-4 -4 -7 -112 -7 -240 0 -210 2 -237 20 -286 27 -68 72
-119 135 -149 43 -21 65 -24 155 -24 95 0 110 3 160 28 33 17 68 45 88 71 54
72 63 128 60 380 l-3 221 -50 0 -50 0 -5 -235 c-5 -257 -8 -270 -68 -327 -38
-36 -94 -49 -173 -40 -59 7 -99 33 -131 85 -22 35 -23 48 -28 277 l-5 240 -45
3 c-25 2 -49 0 -53 -4z"/>
<path d="M2695 1539 c-4 -6 0 -18 9 -27 10 -9 53 -69 96 -132 44 -63 86 -124
95 -135 20 -25 19 -47 -3 -76 -10 -13 -22 -31 -25 -39 -4 -8 -50 -73 -102
-145 -52 -71 -95 -134 -95 -138 0 -4 28 -7 62 -5 l61 3 90 125 c49 69 95 126
102 128 7 2 47 -43 88 -100 125 -171 110 -158 178 -158 32 0 59 3 59 6 0 5
-29 48 -182 267 -32 45 -58 89 -58 97 0 15 105 175 141 216 11 11 19 24 19 28
0 5 13 25 30 46 16 20 27 40 23 44 -12 11 -112 6 -123 -6 -6 -7 -40 -53 -75
-103 -82 -114 -83 -115 -99 -115 -7 0 -35 32 -62 71 -114 165 -109 159 -169
159 -30 0 -57 -5 -60 -11z"/>
<path d="M4715 1529 c-95 -39 -154 -96 -201 -194 -35 -73 -34 -204 1 -280 62
-138 183 -215 335 -215 95 0 192 34 253 88 23 20 21 33 -7 60 -25 23 -51 29
-61 12 -4 -6 -28 -21 -53 -33 -37 -17 -65 -22 -127 -22 -74 1 -84 3 -131 34
-28 18 -66 56 -85 84 -32 47 -34 54 -34 136 1 75 4 91 27 127 52 80 143 134
229 134 49 0 146 -38 170 -66 17 -21 37 -17 64 14 32 36 31 45 -9 75 -86 66
-265 88 -371 46z"/>
<path d="M5871 1488 c-16 -35 -38 -83 -49 -108 -11 -25 -32 -70 -46 -101 -14
-31 -26 -59 -26 -62 0 -3 -14 -36 -32 -74 -76 -165 -126 -289 -119 -296 5 -5
28 -7 52 -5 42 3 45 5 71 58 15 30 28 60 28 67 0 6 10 19 22 27 18 13 54 16
185 16 188 0 179 4 225 -103 l26 -62 56 -3 c31 -2 56 1 56 6 0 10 -73 181
-135 317 -46 102 -75 167 -75 171 0 6 -50 120 -75 169 -19 39 -21 40 -77 43
l-57 3 -30 -63z m97 -90 c5 -7 28 -58 51 -113 23 -55 46 -108 51 -117 6 -10
10 -29 10 -43 l0 -26 -127 3 c-152 4 -146 -6 -82 146 23 53 48 112 56 130 14
34 25 39 41 20z"/>
<path d="M6855 1538 c-3 -7 -4 -166 -3 -353 l3 -340 50 0 50 0 3 94 c1 52 8
101 14 108 14 18 178 18 199 1 17 -14 63 -83 92 -138 34 -62 45 -70 105 -70
66 0 67 -3 -26 134 l-67 98 24 17 c117 79 155 217 93 341 -24 47 -36 59 -87
85 -60 30 -61 30 -253 33 -153 3 -193 1 -197 -10z m367 -98 c66 -25 92 -63 92
-135 0 -61 -23 -99 -76 -126 -33 -17 -55 -19 -156 -17 l-117 3 -3 135 c-2 118
0 136 15 147 28 21 183 17 245 -7z"/>
<path d="M7924 1536 c-3 -8 -4 -27 -2 -43 l3 -28 90 -2 c50 -2 100 -5 112 -8
l23 -5 2 -303 3 -302 53 -3 c28 -2 53 -2 54 0 1 2 5 140 8 308 l5 305 105 5
104 5 7 32 c3 18 2 36 -4 42 -7 7 -105 11 -284 11 -227 0 -275 -2 -279 -14z"/>
</g>
</svg>
