<?xml version="1.0" encoding="utf-8"?>
<svg viewBox="0 0 500 44.9" xmlns="http://www.w3.org/2000/svg">
  <g transform="matrix(1.176859974861, 0, 0, 1.176859974861, -34.694594860996, -240.756595452631)" style="transform-origin: -8.35189px -1.11359px;">
    <g transform="matrix(0.053637, 0, 0, -0.053637, -2.434735, 287.59903)" fill="#000000" stroke="none" style="">
      <path d="M575 1538 c-3 -7 -4 -166 -3 -353 l3 -340 207 -3 208 -2 6 25 c3 14 3 36 0 50 l-6 25 -138 0 c-95 0 -143 4 -155 13 -15 11 -17 44 -19 302 l-3 290 -48 3 c-32 2 -49 -1 -52 -10z"/>
      <path d="M1527 1544 c-4 -4 -7 -112 -7 -240 0 -210 2 -237 20 -286 27 -68 72 -119 135 -149 43 -21 65 -24 155 -24 95 0 110 3 160 28 33 17 68 45 88 71 54 72 63 128 60 380 l-3 221 -50 0 -50 0 -5 -235 c-5 -257 -8 -270 -68 -327 -38 -36 -94 -49 -173 -40 -59 7 -99 33 -131 85 -22 35 -23 48 -28 277 l-5 240 -45 3 c-25 2 -49 0 -53 -4z"/>
      <path d="M2695 1539 c-4 -6 0 -18 9 -27 10 -9 53 -69 96 -132 44 -63 86 -124 95 -135 20 -25 19 -47 -3 -76 -10 -13 -22 -31 -25 -39 -4 -8 -50 -73 -102 -145 -52 -71 -95 -134 -95 -138 0 -4 28 -7 62 -5 l61 3 90 125 c49 69 95 126 102 128 7 2 47 -43 88 -100 125 -171 110 -158 178 -158 32 0 59 3 59 6 0 5 -29 48 -182 267 -32 45 -58 89 -58 97 0 15 105 175 141 216 11 11 19 24 19 28 0 5 13 25 30 46 16 20 27 40 23 44 -12 11 -112 6 -123 -6 -6 -7 -40 -53 -75 -103 -82 -114 -83 -115 -99 -115 -7 0 -35 32 -62 71 -114 165 -109 159 -169 159 -30 0 -57 -5 -60 -11z"/>
      <path d="M4715 1529 c-95 -39 -154 -96 -201 -194 -35 -73 -34 -204 1 -280 62 -138 183 -215 335 -215 95 0 192 34 253 88 23 20 21 33 -7 60 -25 23 -51 29 -61 12 -4 -6 -28 -21 -53 -33 -37 -17 -65 -22 -127 -22 -74 1 -84 3 -131 34 -28 18 -66 56 -85 84 -32 47 -34 54 -34 136 1 75 4 91 27 127 52 80 143 134 229 134 49 0 146 -38 170 -66 17 -21 37 -17 64 14 32 36 31 45 -9 75 -86 66 -265 88 -371 46z"/>
      <path d="M5871 1488 c-16 -35 -38 -83 -49 -108 -11 -25 -32 -70 -46 -101 -14 -31 -26 -59 -26 -62 0 -3 -14 -36 -32 -74 -76 -165 -126 -289 -119 -296 5 -5 28 -7 52 -5 42 3 45 5 71 58 15 30 28 60 28 67 0 6 10 19 22 27 18 13 54 16 185 16 188 0 179 4 225 -103 l26 -62 56 -3 c31 -2 56 1 56 6 0 10 -73 181 -135 317 -46 102 -75 167 -75 171 0 6 -50 120 -75 169 -19 39 -21 40 -77 43 l-57 3 -30 -63z m97 -90 c5 -7 28 -58 51 -113 23 -55 46 -108 51 -117 6 -10 10 -29 10 -43 l0 -26 -127 3 c-152 4 -146 -6 -82 146 23 53 48 112 56 130 14 34 25 39 41 20z"/>
      <path d="M6855 1538 c-3 -7 -4 -166 -3 -353 l3 -340 50 0 50 0 3 94 c1 52 8 101 14 108 14 18 178 18 199 1 17 -14 63 -83 92 -138 34 -62 45 -70 105 -70 66 0 67 -3 -26 134 l-67 98 24 17 c117 79 155 217 93 341 -24 47 -36 59 -87 85 -60 30 -61 30 -253 33 -153 3 -193 1 -197 -10z m367 -98 c66 -25 92 -63 92 -135 0 -61 -23 -99 -76 -126 -33 -17 -55 -19 -156 -17 l-117 3 -3 135 c-2 118 0 136 15 147 28 21 183 17 245 -7z"/>
      <path d="M7924 1536 c-3 -8 -4 -27 -2 -43 l3 -28 90 -2 c50 -2 100 -5 112 -8 l23 -5 2 -303 3 -302 53 -3 c28 -2 53 -2 54 0 1 2 5 140 8 308 l5 305 105 5 104 5 7 32 c3 18 2 36 -4 42 -7 7 -105 11 -284 11 -227 0 -275 -2 -279 -14z"/>
    </g>
  </g>
</svg>